<?xml version="1.0" encoding="UTF-8"?>
<svg id="Layer_2" data-name="Layer 2" xmlns="http://www.w3.org/2000/svg" viewBox="0 0 149.95 154.08">
  <defs>
    <style>
      .cls-1 {
        fill: #fff;
      }
    </style>
  </defs>
  <g id="Layer_1-2" data-name="Layer 1">
    <path class="cls-1" d="m106.69,43.96c-5.62,1.51-10.94,4.46-15.35,8.87l-40.67,40.67c-2.49,2.46-5.38,4.24-8.48,5.34-5.21-8.9-4-20.54,3.62-28.16l52.68-52.69-7.85-7.85-52.69,52.68c-9.99,10-12.53,24.67-7.6,37.03-4.57-.78-8.94-2.93-12.46-6.44-9.05-9.06-9.05-23.8,0-32.86L70.59,7.86l-7.86-7.86L10.04,52.69c-13.39,13.39-13.39,35.18,0,48.57,6.48,6.48,15.11,10.06,24.29,10.06,1.15,0,2.28-.06,3.4-.17,1.89-.18,3.74-.52,5.55-1.01,2.56-.68,5.02-1.66,7.35-2.92,2.9-1.56,5.59-3.56,7.99-5.96l40.58-40.58s.07-.07.11-.1c7.21-7.12,17.97-8.56,26.61-4.29,2.22,1.08,4.3,2.55,6.14,4.39.88.88,1.67,1.81,2.38,2.79,2.12,2.92,3.47,6.22,4.06,9.64-3.56-1.42-7.37-2.24-11.3-2.4-.49-.03-.97-.03-1.45-.03-9.17,0-17.8,3.58-24.29,10.06l-52.68,52.68,7.85,7.86,52.69-52.69c4.39-4.39,10.22-6.8,16.43-6.8,4.19,0,8.21,1.1,11.73,3.18-1.12,3.13-2.92,6.07-5.43,8.57l-52.69,52.69,7.86,7.85,52.68-52.68c2.42-2.43,4.42-5.13,5.96-8.01,2.18-4.04,3.49-8.42,3.92-12.89h0c.97-9.89-2.33-20.11-9.88-27.67-8.98-8.98-21.75-11.94-33.22-8.87Z"/>
  </g>
</svg>