<?xml version="1.0" encoding="UTF-8"?>
<svg id="Layer_2" data-name="Layer 2" xmlns="http://www.w3.org/2000/svg" viewBox="0 0 777.36 154.08">
  <defs>
    <style>
      .cls-1 {
        fill: #fff;
      }
    </style>
  </defs>
  <g id="Layer_1-2" data-name="Layer 1">
    <g>
      <path class="cls-1" d="m106.69,43.96c-5.62,1.51-10.94,4.46-15.35,8.87l-40.67,40.67c-2.49,2.46-5.38,4.24-8.48,5.34-5.21-8.9-4-20.54,3.62-28.16l52.68-52.69-7.85-7.85-52.69,52.68c-9.99,10-12.53,24.67-7.6,37.03-4.57-.78-8.94-2.93-12.46-6.44-9.05-9.06-9.05-23.8,0-32.86L70.59,7.86l-7.86-7.86L10.04,52.69c-13.39,13.39-13.39,35.18,0,48.57,6.48,6.48,15.11,10.06,24.29,10.06,1.15,0,2.28-.06,3.4-.17,1.89-.18,3.74-.52,5.55-1.01,2.56-.68,5.02-1.66,7.35-2.92,2.9-1.56,5.59-3.56,7.99-5.96l40.58-40.58s.07-.07.11-.1c7.21-7.12,17.97-8.56,26.61-4.29,2.22,1.08,4.3,2.55,6.14,4.39.88.88,1.67,1.81,2.38,2.79,2.12,2.92,3.47,6.22,4.06,9.64-3.56-1.42-7.37-2.24-11.3-2.4-.49-.03-.97-.03-1.45-.03-9.17,0-17.8,3.58-24.29,10.06l-52.68,52.68,7.85,7.86,52.69-52.69c4.39-4.39,10.22-6.8,16.43-6.8,4.19,0,8.21,1.1,11.73,3.18-1.12,3.13-2.92,6.07-5.43,8.57l-52.69,52.69,7.86,7.85,52.68-52.68c2.42-2.43,4.42-5.13,5.96-8.01,2.18-4.04,3.49-8.42,3.92-12.89h0c.97-9.89-2.33-20.11-9.88-27.67-8.98-8.98-21.75-11.94-33.22-8.87Z"/>
      <path class="cls-1" d="m222.09,78.45c-1.59-1.55-3.36-2.85-5.32-3.91-1.96-1.06-3.93-1.93-5.92-2.61-3.49-1.24-6.32-2.46-8.49-3.64-2.18-1.18-3.78-2.44-4.8-3.78-1.03-1.33-1.54-2.84-1.54-4.52,0-1.86.72-3.5,2.14-4.9,1.44-1.39,3.67-2.09,6.71-2.09,2.18,0,4.09.42,5.73,1.26,1.65.83,3.1,1.96,4.34,3.35,1.25,1.41,2.3,2.91,3.17,4.53l8.86-5.04c-1.05-2.3-2.58-4.51-4.57-6.62-1.99-2.11-4.41-3.87-7.28-5.27-2.86-1.41-6.21-2.1-10.07-2.1s-7.41.75-10.49,2.24c-3.08,1.49-5.52,3.56-7.32,6.2-1.81,2.64-2.71,5.7-2.71,9.19,0,3.04.58,5.64,1.77,7.78,1.18,2.14,2.67,3.94,4.48,5.41,1.8,1.46,3.71,2.67,5.69,3.63,1.99.97,3.79,1.73,5.41,2.29,2.73.99,5.15,2,7.28,3.03,2.11,1.03,3.74,2.27,4.89,3.73,1.16,1.47,1.73,3.38,1.73,5.75,0,2.6-.94,4.73-2.8,6.34-1.86,1.61-4.29,2.42-7.28,2.42-2.42,0-4.65-.53-6.67-1.58-2.02-1.06-3.85-2.52-5.5-4.39-1.65-1.86-3.2-4.07-4.62-6.62l-8.21,5.79c1.44,2.98,3.37,5.75,5.83,8.29,2.46,2.55,5.32,4.59,8.59,6.11,3.27,1.53,6.8,2.29,10.58,2.29,2.8,0,5.48-.46,8.07-1.35,2.58-.91,4.9-2.18,6.95-3.83,2.05-1.64,3.68-3.67,4.89-6.1,1.22-2.44,1.82-5.16,1.82-8.21,0-2.86-.5-5.36-1.49-7.51-1-2.14-2.29-3.99-3.87-5.55Z"/>
      <path class="cls-1" d="m269.97,67.21c-2.73-1.02-5.84-1.53-9.33-1.53-4.04,0-7.59.55-10.63,1.68-3.05,1.11-5.57,2.27-7.56,3.45l4.1,7.1c.69-.44,1.64-.99,2.89-1.63,1.24-.66,2.75-1.22,4.53-1.69,1.77-.46,3.64-.7,5.64-.7,1.3,0,2.52.12,3.63.37,1.12.25,2.1.66,2.95,1.22.83.55,1.47,1.27,1.9,2.14.44.86.66,1.99.66,3.35v5.26c-1.34-.79-3-1.49-4.99-2.08-2.09-.62-4.56-.94-7.42-.94-5.35,0-9.48,1.23-12.41,3.68-2.92,2.46-4.38,5.77-4.38,9.94,0,2.92.69,5.41,2.05,7.46,1.36,2.05,3.21,3.6,5.51,4.66,2.3,1.05,4.79,1.58,7.46,1.58,2.49,0,4.92-.45,7.32-1.35,2.39-.9,4.38-2.28,5.97-4.15.33-.4.63-.8.88-1.24v5.81h9.89v-30.59c0-2.86-.76-5.29-2.29-7.28-1.52-1.99-3.65-3.5-6.39-4.53Zm-2.7,30.92c-1,1.56-2.32,2.76-3.97,3.59-1.65.84-3.5,1.26-5.56,1.26-1.55,0-2.93-.25-4.14-.74-1.22-.5-2.16-1.26-2.85-2.29-.68-1.03-1.02-2.26-1.02-3.68s.32-2.52.98-3.46c.66-.93,1.63-1.65,2.93-2.19,1.31-.53,3.02-.79,5.13-.79,2.43,0,4.73.31,6.9.93,1.05.3,2.08.7,3.08,1.18v.59c0,2.19-.5,4.05-1.49,5.6Z"/>
      <path class="cls-1" d="m322.58,67.21c-2.74-1.02-5.85-1.53-9.33-1.53-4.05,0-7.59.55-10.64,1.68-3.05,1.11-5.57,2.27-7.56,3.45l4.1,7.1c.69-.44,1.65-.99,2.89-1.63,1.25-.66,2.76-1.22,4.53-1.69,1.77-.46,3.65-.7,5.64-.7,1.3,0,2.52.12,3.64.37,1.11.25,2.09.66,2.93,1.22.83.55,1.48,1.27,1.92,2.14.43.86.65,1.99.65,3.35v5.26c-1.33-.79-3-1.49-4.99-2.08-2.08-.62-4.56-.94-7.42-.94-5.35,0-9.48,1.23-12.4,3.68-2.92,2.46-4.39,5.77-4.39,9.94,0,2.92.69,5.41,2.05,7.46,1.37,2.05,3.21,3.6,5.51,4.66,2.3,1.05,4.79,1.58,7.46,1.58,2.49,0,4.93-.45,7.33-1.35,2.38-.9,4.38-2.28,5.96-4.15.33-.4.63-.8.88-1.24v5.81h9.89v-30.59c0-2.86-.76-5.29-2.28-7.28-1.53-1.99-3.65-3.5-6.39-4.53Zm-2.71,30.92c-1,1.56-2.32,2.76-3.97,3.59-1.64.84-3.5,1.26-5.55,1.26-1.56,0-2.95-.25-4.15-.74-1.22-.5-2.16-1.26-2.84-2.29-.69-1.03-1.03-2.26-1.03-3.68s.32-2.52.98-3.46c.66-.93,1.63-1.65,2.93-2.19,1.31-.53,3.02-.79,5.13-.79,2.43,0,4.73.31,6.91.93,1.05.3,2.07.69,3.07,1.17v.6c0,2.19-.5,4.05-1.49,5.6Z"/>
      <path class="cls-1" d="m380.88,73.89c-1.41-2.25-3.13-4.05-5.18-5.42-2.71-1.8-5.86-2.71-9.46-2.71s-7.11.9-10.31,2.66c-3.2,1.77-5.77,4.32-7.69,7.65-1.93,3.32-2.89,7.35-2.89,12.07s.97,8.68,2.89,12.03c1.93,3.36,4.5,5.92,7.69,7.7,3.21,1.77,6.64,2.65,10.31,2.65s6.75-.91,9.46-2.71c2.05-1.36,3.78-3.17,5.18-5.44v7.21h10.16V43.07h-10.16v30.82Zm-1.82,21.68c-1.22,2.02-2.75,3.56-4.62,4.61-1.86,1.06-3.79,1.59-5.78,1.59-2.3,0-4.43-.53-6.39-1.59-1.96-1.05-3.53-2.61-4.71-4.66-1.18-2.05-1.77-4.51-1.77-7.37s.59-5.32,1.77-7.37c1.19-2.05,2.76-3.6,4.71-4.66,1.96-1.05,4.09-1.58,6.39-1.58,1.99,0,3.91.53,5.78,1.58,1.87,1.06,3.4,2.6,4.62,4.62,1.21,2.02,1.82,4.5,1.82,7.41s-.61,5.4-1.82,7.42Z"/>
      <path class="cls-1" d="m505.16,90.48c1.64-4.16,2.47-8.67,2.47-13.52s-.83-9.42-2.52-13.53c-1.68-4.1-4.04-7.66-7.09-10.68-3.04-3.01-6.62-5.37-10.72-7.09-4.11-1.71-8.59-2.56-13.44-2.56s-9.34.85-13.48,2.56c-4.13,1.72-7.73,4.08-10.81,7.09-3.08,3.02-5.47,6.58-7.18,10.68-1.72,4.11-2.57,8.62-2.57,13.53s.84,9.36,2.52,13.52c1.69,4.17,4.06,7.77,7.14,10.82,3.08,3.05,6.68,5.42,10.81,7.13,4.14,1.72,8.66,2.57,13.57,2.57s9.42-.85,13.53-2.57c2.51-1.04,4.82-2.34,6.93-3.88l5.66,5.52h12.86l-12.14-11.74c1.82-2.34,3.3-4.96,4.44-7.85Zm-21.69-8.86h-12.68l15.94,15.53c-.29.2-.58.39-.88.56-3.33,1.96-7.17,2.93-11.52,2.93s-8.24-1.01-11.66-3.03c-3.42-2.02-6.14-4.82-8.16-8.4-2.02-3.57-3.03-7.66-3.03-12.26s.96-8.47,2.88-11.99c1.93-3.51,4.57-6.26,7.93-8.25,3.36-1.99,7.21-2.99,11.56-2.99s8.5,1.06,11.9,3.17c3.38,2.11,6.05,4.97,7.97,8.59,1.93,3.6,2.89,7.65,2.89,12.12s-.97,8.45-2.89,11.94c-.24.44-.49.85-.76,1.27l-9.5-9.2Z"/>
      <path class="cls-1" d="m551.37,67.21c-2.74-1.02-5.84-1.53-9.33-1.53-4.04,0-7.59.55-10.64,1.68-3.04,1.11-5.56,2.27-7.55,3.45l4.1,7.1c.69-.44,1.64-.99,2.89-1.63,1.24-.66,2.75-1.22,4.52-1.69,1.78-.46,3.65-.7,5.64-.7,1.31,0,2.52.12,3.64.37,1.12.25,2.1.66,2.93,1.22.84.55,1.48,1.27,1.92,2.14.44.86.66,1.99.66,3.35v5.26c-1.34-.79-3.01-1.49-5-2.08-2.08-.62-4.55-.94-7.41-.94-5.35,0-9.48,1.23-12.41,3.68-2.92,2.46-4.38,5.77-4.38,9.94,0,2.92.68,5.41,2.05,7.46,1.36,2.05,3.21,3.6,5.51,4.66,2.3,1.05,4.79,1.58,7.46,1.58,2.48,0,4.92-.45,7.32-1.35,2.39-.9,4.38-2.28,5.97-4.15.33-.4.63-.8.88-1.24v5.81h9.89v-30.59c0-2.86-.77-5.29-2.29-7.28-1.52-1.99-3.65-3.5-6.39-4.53Zm-2.71,30.92c-.99,1.56-2.31,2.76-3.97,3.59-1.64.84-3.5,1.26-5.55,1.26-1.55,0-2.93-.25-4.15-.74-1.21-.5-2.15-1.26-2.84-2.29-.69-1.03-1.02-2.26-1.02-3.68s.32-2.52.98-3.46c.65-.93,1.62-1.65,2.93-2.19,1.3-.53,3.02-.79,5.13-.79,2.43,0,4.73.31,6.9.93,1.05.3,2.08.7,3.08,1.18v.59c0,2.19-.5,4.05-1.5,5.6Z"/>
      <path class="cls-1" d="m609.66,73.87c-1.41-2.24-3.13-4.04-5.17-5.4-2.71-1.8-5.86-2.71-9.47-2.71s-7.1.9-10.3,2.66c-3.21,1.77-5.77,4.32-7.69,7.65-1.94,3.32-2.89,7.35-2.89,12.07s.96,8.68,2.89,12.03c1.93,3.36,4.49,5.92,7.69,7.7,3.21,1.77,6.64,2.65,10.3,2.65s6.77-.91,9.47-2.71c2.04-1.36,3.77-3.16,5.17-5.42v7.19h10.17V43.07h-10.17v30.8Zm-1.82,21.7c-1.21,2.02-2.75,3.56-4.61,4.61-1.86,1.06-3.8,1.59-5.79,1.59-2.3,0-4.42-.53-6.39-1.59-1.96-1.05-3.53-2.61-4.7-4.66-1.19-2.05-1.77-4.51-1.77-7.37s.58-5.32,1.77-7.37c1.18-2.05,2.75-3.6,4.7-4.66,1.97-1.05,4.09-1.58,6.39-1.58,1.99,0,3.92.53,5.79,1.58,1.86,1.06,3.4,2.6,4.61,4.62,1.22,2.02,1.82,4.5,1.82,7.41s-.6,5.4-1.82,7.42Z"/>
      <path class="cls-1" d="m668.65,68.38c-3.2-1.74-7.07-2.61-11.6-2.61s-8.49.93-11.84,2.76c-3.36,1.83-5.96,4.43-7.8,7.78-1.83,3.36-2.75,7.31-2.75,11.84s.9,8.4,2.71,11.75c1.8,3.36,4.36,5.97,7.69,7.84,3.33,1.86,7.17,2.8,11.52,2.8,4.97,0,9.23-.98,12.78-2.93,3.54-1.96,6.46-4.87,8.76-8.72l-8.76-3.46c-1.31,2.3-2.99,4.02-5.04,5.13-2.06,1.12-4.49,1.69-7.27,1.69-2.61,0-4.82-.56-6.63-1.69-1.8-1.11-3.18-2.77-4.14-4.94-.67-1.5-1.09-3.21-1.27-5.13h33.4c0-.25.01-.65.04-1.21.03-.56.05-1.09.05-1.59,0-4.6-.84-8.52-2.52-11.79-1.69-3.27-4.12-5.77-7.33-7.51Zm-23.37,15.11c.24-1.3.59-2.48,1.08-3.54.96-2.11,2.33-3.74,4.1-4.85,1.77-1.12,3.93-1.69,6.48-1.69,2.11,0,3.97.47,5.55,1.4,1.58.93,2.83,2.24,3.73,3.91.74,1.37,1.18,2.96,1.3,4.76h-22.24Z"/>
      <path class="cls-1" d="m724.52,68.38c-3.21-1.74-7.07-2.61-11.6-2.61s-8.49.93-11.85,2.76c-3.35,1.83-5.95,4.43-7.78,7.78-1.83,3.36-2.75,7.31-2.75,11.84s.9,8.4,2.71,11.75c1.8,3.36,4.36,5.97,7.69,7.84,3.32,1.86,7.16,2.8,11.52,2.8,4.97,0,9.23-.98,12.77-2.93,3.55-1.96,6.47-4.87,8.77-8.72l-8.77-3.46c-1.3,2.3-2.98,4.02-5.04,5.13-2.05,1.12-4.48,1.69-7.26,1.69-2.61,0-4.83-.56-6.63-1.69-1.8-1.11-3.18-2.77-4.15-4.94-.66-1.5-1.07-3.22-1.25-5.13h33.39c0-.25.01-.65.04-1.21.03-.56.05-1.09.05-1.59,0-4.6-.84-8.52-2.52-11.79-1.69-3.27-4.12-5.77-7.33-7.51Zm-23.38,15.11c.24-1.3.6-2.48,1.08-3.54.97-2.11,2.33-3.74,4.11-4.85,1.77-1.12,3.93-1.69,6.48-1.69,2.11,0,3.95.47,5.55,1.4,1.58.93,2.83,2.24,3.73,3.91.74,1.37,1.18,2.96,1.3,4.76h-22.25Z"/>
      <path class="cls-1" d="m773.81,66.42c-1.36-.49-2.83-.74-4.38-.74-2.18,0-4.28.79-6.3,2.37-1.33,1.04-2.5,2.32-3.5,3.82v-5.17h-9.98v42.9h9.98v-24.16c0-2.05.24-3.83.7-5.36.47-1.52,1.23-2.72,2.29-3.59,1.06-.87,2.42-1.3,4.1-1.3,1.25,0,2.29.19,3.13.55.83.37,1.69.94,2.56,1.69l4.94-8.49c-1-1.18-2.18-2.02-3.55-2.52Z"/>
    </g>
  </g>
</svg>